<!-- created by svgstack.com | Attribution is required. --><svg width="167" height="167" viewBox="0 0 167 167" fill="none" xmlns="http://www.w3.org/2000/svg"><rect opacity="0.5" x="2" y="2" width="163" height="162" rx="40" stroke="url(#paint0_linear_2006_361)" stroke-width="3"/><path d="M138.167 85C138.167 90.9854 133.319 95.8333 127.333 95.8333H40.6666C34.6812 95.8333 29.8333 90.9854 29.8333 85C29.8333 79.0146 34.6812 74.1667 40.6666 74.1667H127.333C133.319 74.1667 138.167 79.0146 138.167 85ZM40.6666 57.9167H127.333C133.319 57.9167 138.167 53.0687 138.167 47.0833C138.167 41.0979 133.319 36.25 127.333 36.25H40.6666C34.6812 36.25 29.8333 41.0979 29.8333 47.0833C29.8333 53.0687 34.6812 57.9167 40.6666 57.9167ZM127.333 112.083H40.6666C34.6812 112.083 29.8333 116.931 29.8333 122.917C29.8333 128.902 34.6812 133.75 40.6666 133.75H127.333C133.319 133.75 138.167 128.902 138.167 122.917C138.167 116.931 133.319 112.083 127.333 112.083Z" fill="url(#paint1_linear_2006_361)"/><path d="M127.333 38.9583C131.813 38.9583 135.458 42.6037 135.458 47.0833C135.458 51.5629 131.813 55.2083 127.333 55.2083H40.6666C36.1871 55.2083 32.5416 51.5629 32.5416 47.0833C32.5416 42.6037 36.1871 38.9583 40.6666 38.9583H127.333ZM127.333 76.875C131.813 76.875 135.458 80.5204 135.458 85C135.458 89.4796 131.813 93.125 127.333 93.125H40.6666C36.1871 93.125 32.5416 89.4796 32.5416 85C32.5416 80.5204 36.1871 76.875 40.6666 76.875H127.333ZM127.333 114.792C131.813 114.792 135.458 118.437 135.458 122.917C135.458 127.396 131.813 131.042 127.333 131.042H40.6666C36.1871 131.042 32.5416 127.396 32.5416 122.917C32.5416 118.437 36.1871 114.792 40.6666 114.792H127.333ZM127.333 36.25H40.6666C34.6812 36.25 29.8333 41.0979 29.8333 47.0833C29.8333 53.0687 34.6812 57.9167 40.6666 57.9167H127.333C133.319 57.9167 138.167 53.0687 138.167 47.0833C138.167 41.0979 133.319 36.25 127.333 36.25ZM127.333 74.1667H40.6666C34.6812 74.1667 29.8333 79.0146 29.8333 85C29.8333 90.9854 34.6812 95.8333 40.6666 95.8333H127.333C133.319 95.8333 138.167 90.9854 138.167 85C138.167 79.0146 133.319 74.1667 127.333 74.1667ZM127.333 112.083H40.6666C34.6812 112.083 29.8333 116.931 29.8333 122.917C29.8333 128.902 34.6812 133.75 40.6666 133.75H127.333C133.319 133.75 138.167 128.902 138.167 122.917C138.167 116.931 133.319 112.083 127.333 112.083Z" fill="url(#paint2_linear_2006_361)"/><defs><linearGradient id="paint0_linear_2006_361" x1="2" y1="2" x2="163.997" y2="164.997" gradientUnits="userSpaceOnUse"><stop stop-color="white"/><stop offset="0.549032" stop-color="white" stop-opacity="0"/><stop offset="0.608579" stop-color="white" stop-opacity="0"/><stop offset="1" stop-color="white"/></linearGradient><linearGradient id="paint1_linear_2006_361" x1="35.7147" y1="36.7148" x2="132.285" y2="133.285" gradientUnits="userSpaceOnUse"><stop stop-color="white" stop-opacity="0.6"/><stop offset="1" stop-color="white" stop-opacity="0.3"/></linearGradient><linearGradient id="paint2_linear_2006_361" x1="35.7147" y1="36.7148" x2="132.285" y2="133.285" gradientUnits="userSpaceOnUse"><stop stop-color="white" stop-opacity="0.6"/><stop offset="0.4927" stop-color="white" stop-opacity="0"/><stop offset="0.9971" stop-color="white" stop-opacity="0.3"/></linearGradient></defs></svg> 