<!-- created by svgstack.com | Attribution is required. --><svg width="165" height="165" viewBox="0 0 165 165" fill="none" xmlns="http://www.w3.org/2000/svg"><g clip-path="url(#clip0_35_801)"><g opacity="0.5" filter="url(#filter0_f_35_801)"><rect x="1" width="163" height="162" rx="40" stroke="url(#paint0_linear_35_801)" stroke-width="3"/></g></g><path d="M120.917 45.0833H77.5834L74.6367 36.2433C73.1634 31.8179 69.0196 28.8333 64.3559 28.8333H39.6667C33.6813 28.8333 28.8334 33.6812 28.8334 39.6667V110.083C28.8334 119.059 36.108 126.333 45.0834 126.333H120.917C129.892 126.333 137.167 119.059 137.167 110.083V61.3333C137.167 52.3579 129.892 45.0833 120.917 45.0833Z" fill="url(#paint1_linear_35_801)"/><path d="M64.3559 31.5417C67.8605 31.5417 70.9588 33.7733 72.0638 37.0992L75.0105 45.9392L75.6334 47.7917H77.5834H120.917C128.386 47.7917 134.458 53.8637 134.458 61.3333V110.083C134.458 117.553 128.386 123.625 120.917 123.625H45.0834C37.6138 123.625 31.5417 117.553 31.5417 110.083V39.6667C31.5417 35.1871 35.1871 31.5417 39.6667 31.5417H64.3559ZM64.3559 28.8333H39.6667C33.6813 28.8333 28.8334 33.6812 28.8334 39.6667V110.083C28.8334 119.059 36.108 126.333 45.0834 126.333H120.917C129.892 126.333 137.167 119.059 137.167 110.083V61.3333C137.167 52.3579 129.892 45.0833 120.917 45.0833H77.5834L74.6367 36.2433C73.1634 31.8179 69.0196 28.8333 64.3559 28.8333Z" fill="url(#paint2_linear_35_801)"/><path d="M77.5834 45.0833H28.8334V39.6667C28.8334 33.6812 33.6813 28.8333 39.6667 28.8333H64.3559C69.0196 28.8333 73.158 31.8179 74.6313 36.2433L77.5834 45.0833Z" fill="url(#paint3_linear_35_801)"/><defs><filter id="filter0_f_35_801" x="-2.5" y="-3.5" width="170" height="169" filterUnits="userSpaceOnUse" color-interpolation-filters="sRGB"><feFlood flood-opacity="0" result="BackgroundImageFix"/><feBlend mode="normal" in="SourceGraphic" in2="BackgroundImageFix" result="shape"/><feGaussianBlur stdDeviation="1" result="effect1_foregroundBlur_35_801"/></filter><linearGradient id="paint0_linear_35_801" x1="1" y1="0" x2="162.997" y2="162.997" gradientUnits="userSpaceOnUse"><stop stop-color="white"/><stop offset="0.549032" stop-color="white" stop-opacity="0"/><stop offset="0.608579" stop-color="white" stop-opacity="0"/><stop offset="1" stop-color="white"/></linearGradient><linearGradient id="paint1_linear_35_801" x1="30.6523" y1="33.3606" x2="125.636" y2="128.345" gradientUnits="userSpaceOnUse"><stop stop-color="white" stop-opacity="0.6"/><stop offset="1" stop-color="white" stop-opacity="0.3"/></linearGradient><linearGradient id="paint2_linear_35_801" x1="30.6523" y1="33.3606" x2="125.636" y2="128.345" gradientUnits="userSpaceOnUse"><stop stop-color="white" stop-opacity="0.6"/><stop offset="0.4927" stop-color="white" stop-opacity="0"/><stop offset="0.9971" stop-color="white" stop-opacity="0.3"/></linearGradient><linearGradient id="paint3_linear_35_801" x1="37.9469" y1="26.0654" x2="67.2738" y2="55.3929" gradientUnits="userSpaceOnUse"><stop stop-color="white" stop-opacity="0.7"/><stop offset="0.5188" stop-color="white" stop-opacity="0.45"/><stop offset="0.9998" stop-color="white" stop-opacity="0.55"/></linearGradient><clipPath id="clip0_35_801"><path d="M0 64C0 41.5979 0 30.3968 4.35974 21.8404C8.19467 14.3139 14.3139 8.19467 21.8404 4.35974C30.3968 0 41.5979 0 64 0H100C122.402 0 133.603 0 142.16 4.35974C149.686 8.19467 155.805 14.3139 159.64 21.8404C164 30.3968 164 41.5979 164 64V100C164 122.402 164 133.603 159.64 142.16C155.805 149.686 149.686 155.805 142.16 159.64C133.603 164 122.402 164 100 164H64C41.5979 164 30.3968 164 21.8404 159.64C14.3139 155.805 8.19467 149.686 4.35974 142.16C0 133.603 0 122.402 0 100V64Z" fill="white"/></clipPath></defs></svg> 