<!-- created by svgstack.com | Attribution is required. --><svg width="171" height="170" viewBox="0 0 171 170" fill="none" xmlns="http://www.w3.org/2000/svg"><g opacity="0.5" filter="url(#filter0_f_35_832)"><rect x="4" y="4" width="163" height="162" rx="40" stroke="url(#paint0_linear_35_832)" stroke-width="3"/></g><path d="M107.667 124.527C111.339 122.409 115.57 122.23 119.231 123.638C122.286 124.814 125.78 123.839 127.855 121.309C131.554 116.797 134.539 111.678 136.635 106.115C137.832 102.936 136.7 99.4421 134.105 97.2429C131.186 94.7837 129.333 91.1221 129.333 87C129.333 82.8779 131.186 79.2162 134.1 76.7462C136.695 74.5471 137.832 71.0587 136.63 67.8737C134.533 62.3162 131.554 57.1921 127.849 52.68C125.775 50.1504 122.281 49.1754 119.226 50.3508C115.57 51.77 111.339 51.5912 107.667 49.4733C103.983 47.3446 101.708 43.7533 101.112 39.8587C100.625 36.6737 98.1008 34.1279 94.9212 33.5862C92.0179 33.0933 89.0387 32.8333 86 32.8333C82.9612 32.8333 79.9821 33.0933 77.0787 33.5862C73.8991 34.1279 71.3804 36.6737 70.8875 39.8587C70.2916 43.7533 68.0166 47.3446 64.3333 49.4733C60.6608 51.5912 56.4304 51.77 52.7687 50.3562C49.7137 49.1808 46.22 50.1558 44.1454 52.6854C40.4458 57.1975 37.4666 62.3162 35.3704 67.8792C34.1679 71.0587 35.3054 74.5525 37.9 76.7462C40.8141 79.2162 42.6666 82.8779 42.6666 87C42.6666 91.1221 40.8141 94.7837 37.9 97.2537C35.3054 99.4529 34.1679 102.941 35.3704 106.126C37.4666 111.684 40.4458 116.808 44.1508 121.32C46.2254 123.85 49.7191 124.825 52.7741 123.649C56.4304 122.23 60.6608 122.409 64.3333 124.527C68.0166 126.655 70.2916 130.247 70.8875 134.141C71.375 137.326 73.8991 139.872 77.0787 140.414C79.9821 140.907 82.9612 141.167 86 141.167C89.0387 141.167 92.0179 140.907 94.9212 140.414C98.1008 139.877 100.625 137.332 101.112 134.141C101.708 130.247 103.983 126.655 107.667 124.527Z" fill="url(#paint1_linear_35_832)"/><path d="M86 35.5416C88.8167 35.5416 91.6658 35.78 94.4662 36.2566C96.4921 36.6033 98.1225 38.25 98.4366 40.2704C99.1842 45.1508 102.06 49.3596 106.312 51.8187C108.761 53.2325 111.54 53.98 114.351 53.98C116.355 53.98 118.327 53.6116 120.206 52.8858C120.748 52.6746 121.317 52.5716 121.902 52.5716C123.375 52.5716 124.816 53.2541 125.758 54.4025C129.317 58.7412 132.123 63.5946 134.095 68.8325C134.853 70.8421 134.165 73.1387 132.345 74.6825C128.71 77.7591 126.625 82.2496 126.625 87C126.625 91.7504 128.71 96.2408 132.35 99.3175C134.17 100.861 134.858 103.152 134.1 105.167C132.123 110.405 129.317 115.259 125.764 119.597C124.821 120.746 123.38 121.428 121.907 121.428C121.322 121.428 120.748 121.32 120.212 121.114C118.332 120.388 116.36 120.02 114.356 120.02C111.545 120.02 108.766 120.767 106.318 122.181C102.06 124.64 99.1896 128.849 98.4421 133.73C98.1333 135.75 96.5029 137.397 94.4771 137.743C91.6658 138.22 88.8167 138.458 86 138.458C83.1833 138.458 80.3342 138.22 77.5337 137.743C75.5079 137.397 73.8775 135.75 73.5633 133.73C72.8158 128.849 69.9396 124.64 65.6875 122.181C63.2391 120.767 60.4604 120.02 57.6491 120.02C55.645 120.02 53.6733 120.388 51.7937 121.114C51.2521 121.325 50.6833 121.428 50.0983 121.428C48.625 121.428 47.1841 120.746 46.2416 119.597C42.6829 115.259 39.8771 110.405 37.9054 105.167C37.1471 103.158 37.835 100.861 39.655 99.3175C43.2896 96.2408 45.375 91.7504 45.375 87C45.375 82.2496 43.2896 77.7591 39.6496 74.6825C37.8296 73.1387 37.1416 70.8475 37.9 68.8325C39.8771 63.5946 42.6829 58.7412 46.2416 54.4025C47.1841 53.2541 48.625 52.5716 50.0983 52.5716C50.6833 52.5716 51.2575 52.68 51.7937 52.8858C53.6733 53.6116 55.645 53.98 57.6491 53.98C60.4604 53.98 63.2391 53.2325 65.6875 51.8187C69.945 49.3596 72.8158 45.1508 73.5633 40.2704C73.8775 38.25 75.5079 36.6033 77.5337 36.2566C80.3342 35.78 83.1833 35.5416 86 35.5416ZM86 32.8333C82.9612 32.8333 79.9821 33.0933 77.0787 33.5862C73.8991 34.1279 71.3804 36.6737 70.8875 39.8587C70.2916 43.7533 68.0166 47.3446 64.3333 49.4733C62.2208 50.6921 59.9187 51.2716 57.6491 51.2716C55.9754 51.2716 54.3233 50.9575 52.7687 50.3616C51.9021 50.0258 50.9921 49.8633 50.0983 49.8633C47.845 49.8633 45.635 50.8762 44.1508 52.6854C40.4458 57.1975 37.4666 62.3162 35.3704 67.8792C34.1679 71.0587 35.3054 74.5525 37.9 76.7462C40.8141 79.2162 42.6666 82.8779 42.6666 87C42.6666 91.1221 40.8141 94.7837 37.9 97.2537C35.3054 99.4529 34.1679 102.941 35.3704 106.126C37.4666 111.684 40.4458 116.808 44.1508 121.32C45.635 123.129 47.845 124.142 50.0983 124.142C50.9975 124.142 51.9021 123.98 52.7687 123.644C54.3233 123.042 55.9754 122.734 57.6491 122.734C59.9187 122.734 62.2208 123.313 64.3333 124.532C68.0166 126.661 70.2916 130.252 70.8875 134.147C71.375 137.332 73.8991 139.877 77.0787 140.419C79.9821 140.907 82.9612 141.167 86 141.167C89.0387 141.167 92.0179 140.907 94.9212 140.414C98.1008 139.877 100.625 137.332 101.112 134.141C101.708 130.247 103.983 126.655 107.667 124.527C109.779 123.308 112.081 122.728 114.351 122.728C116.025 122.728 117.677 123.042 119.231 123.638C120.098 123.974 121.008 124.137 121.902 124.137C124.155 124.137 126.365 123.124 127.849 121.315C131.549 116.802 134.533 111.684 136.63 106.121C137.827 102.941 136.695 99.4475 134.1 97.2483C131.186 94.7837 129.333 91.1221 129.333 87C129.333 82.8779 131.186 79.2162 134.1 76.7462C136.695 74.5471 137.832 71.0587 136.63 67.8737C134.533 62.3162 131.554 57.1921 127.849 52.68C126.365 50.8708 124.155 49.8579 121.902 49.8579C121.002 49.8579 120.098 50.0204 119.231 50.3562C117.677 50.9575 116.025 51.2662 114.351 51.2662C112.081 51.2662 109.779 50.6866 107.667 49.4679C103.983 47.3391 101.708 43.7479 101.112 39.8533C100.625 36.6683 98.1008 34.1225 94.9212 33.5808C92.0179 33.0933 89.0387 32.8333 86 32.8333Z" fill="url(#paint2_linear_35_832)"/><path d="M86 65.3333C74.0346 65.3333 64.3333 75.0346 64.3333 87C64.3333 98.9654 74.0346 108.667 86 108.667C97.9654 108.667 107.667 98.9654 107.667 87C107.667 75.0346 97.9654 65.3333 86 65.3333Z" fill="url(#paint3_linear_35_832)"/><defs><filter id="filter0_f_35_832" x="0.5" y="0.5" width="170" height="169" filterUnits="userSpaceOnUse" color-interpolation-filters="sRGB"><feFlood flood-opacity="0" result="BackgroundImageFix"/><feBlend mode="normal" in="SourceGraphic" in2="BackgroundImageFix" result="shape"/><feGaussianBlur stdDeviation="1" result="effect1_foregroundBlur_35_832"/></filter><linearGradient id="paint0_linear_35_832" x1="4" y1="4" x2="165.997" y2="166.997" gradientUnits="userSpaceOnUse"><stop stop-color="white"/><stop offset="0.549032" stop-color="white" stop-opacity="0"/><stop offset="0.608579" stop-color="white" stop-opacity="0"/><stop offset="1" stop-color="white"/></linearGradient><linearGradient id="paint1_linear_35_832" x1="47.8899" y1="48.8899" x2="124.11" y2="125.11" gradientUnits="userSpaceOnUse"><stop stop-color="white" stop-opacity="0.6"/><stop offset="1" stop-color="white" stop-opacity="0.3"/></linearGradient><linearGradient id="paint2_linear_35_832" x1="47.8899" y1="48.8899" x2="124.11" y2="125.11" gradientUnits="userSpaceOnUse"><stop stop-color="white" stop-opacity="0.6"/><stop offset="0.4927" stop-color="white" stop-opacity="0"/><stop offset="0.9971" stop-color="white" stop-opacity="0.3"/></linearGradient><linearGradient id="paint3_linear_35_832" x1="70.6795" y1="71.6795" x2="101.32" y2="102.32" gradientUnits="userSpaceOnUse"><stop stop-color="white" stop-opacity="0.7"/><stop offset="0.5188" stop-color="white" stop-opacity="0.45"/><stop offset="0.9998" stop-color="white" stop-opacity="0.55"/></linearGradient></defs></svg> 