<!-- created by svgstack.com | Attribution is required. --><svg width="100" height="100" viewBox="0 0 100 100" fill="none" xmlns="http://www.w3.org/2000/svg"><path d="M81.2625 14.2542C73.5916 13.3333 63.0458 12.5 50 12.5C36.9541 12.5 26.4083 13.3333 18.7375 14.2542C10.4 15.2542 4.16663 22.3917 4.16663 30.7917V69.2125C4.16663 77.6083 10.4 84.7458 18.7375 85.75C26.4083 86.6667 36.9541 87.5 50 87.5C63.0458 87.5 73.5916 86.6667 81.2625 85.7458C89.6 84.7417 95.8333 77.6083 95.8333 69.2083V30.7917C95.8333 22.3917 89.6 15.2542 81.2625 14.2542Z" fill="url(#paint0_linear_2019_601)"/><path d="M50 14.5833C60.9666 14.5833 71.4 15.1708 81.0125 16.325C88.275 17.1958 93.75 23.4167 93.75 30.7917V69.2125C93.75 76.5875 88.275 82.8083 81.0125 83.6792C71.4 84.8292 60.9666 85.4167 50 85.4167C39.0333 85.4167 28.6 84.8292 18.9875 83.675C11.725 82.8042 6.24996 76.5833 6.24996 69.2083V30.7917C6.24996 23.4167 11.725 17.1958 18.9875 16.325C28.6 15.1708 39.0333 14.5833 50 14.5833ZM50 12.5C36.9541 12.5 26.4083 13.3333 18.7375 14.2542C10.4 15.2542 4.16663 22.3917 4.16663 30.7917V69.2125C4.16663 77.6083 10.4 84.7458 18.7375 85.75C26.4083 86.6667 36.9541 87.5 50 87.5C63.0458 87.5 73.5916 86.6667 81.2625 85.7458C89.6 84.7417 95.8333 77.6083 95.8333 69.2083V30.7917C95.8333 22.3958 89.6 15.2583 81.2625 14.2542C73.5916 13.3333 63.0458 12.5 50 12.5Z" fill="url(#paint1_linear_2019_601)"/><path d="M64.6667 46.2666L44.475 32.8041C43.0958 31.8874 41.3208 31.7958 39.8708 32.5791C38.4125 33.3624 37.5 34.8833 37.5 36.5374V63.4624C37.5 65.1208 38.4125 66.6374 39.8708 67.4208C40.5333 67.7749 41.2625 67.9499 41.9875 67.9499C42.8583 67.9499 43.725 67.6958 44.475 67.1958L64.6667 53.7333C65.9167 52.8999 66.6667 51.4999 66.6667 49.9999C66.6667 48.4999 65.9167 47.0999 64.6667 46.2666Z" fill="url(#paint2_linear_2019_601)"/><defs><linearGradient id="paint0_linear_2019_601" x1="14.0133" y1="14.0133" x2="85.9866" y2="85.9867" gradientUnits="userSpaceOnUse"><stop stop-color="white" stop-opacity="0.6"/><stop offset="1" stop-color="white" stop-opacity="0.3"/></linearGradient><linearGradient id="paint1_linear_2019_601" x1="14.0133" y1="14.0133" x2="85.9866" y2="85.9867" gradientUnits="userSpaceOnUse"><stop stop-color="white" stop-opacity="0.6"/><stop offset="0.4927" stop-color="white" stop-opacity="0"/><stop offset="0.9971" stop-color="white" stop-opacity="0.3"/></linearGradient><linearGradient id="paint2_linear_2019_601" x1="33.7654" y1="38.4133" x2="56.9388" y2="61.5866" gradientUnits="userSpaceOnUse"><stop stop-color="white" stop-opacity="0.7"/><stop offset="0.5188" stop-color="white" stop-opacity="0.45"/><stop offset="0.9998" stop-color="white" stop-opacity="0.55"/></linearGradient></defs></svg> 