<!-- created by svgstack.com | Attribution is required. --><svg width="171" height="170" viewBox="0 0 171 170" fill="none" xmlns="http://www.w3.org/2000/svg"><g opacity="0.5" filter="url(#filter0_f_35_839)"><rect x="4" y="4" width="163" height="162" rx="40" stroke="url(#paint0_linear_35_839)" stroke-width="3"/></g><path d="M123.917 130.333H48.0834C39.108 130.333 31.8334 123.059 31.8334 114.083V59.9167C31.8334 50.9413 39.108 43.6667 48.0834 43.6667H123.917C132.892 43.6667 140.167 50.9413 140.167 59.9167V114.083C140.167 123.059 132.892 130.333 123.917 130.333Z" fill="url(#paint1_linear_35_839)"/><path d="M123.917 46.375C131.386 46.375 137.458 52.4471 137.458 59.9167V114.083C137.458 121.548 131.386 127.625 123.917 127.625H48.0834C40.6138 127.625 34.5417 121.548 34.5417 114.083V59.9167C34.5417 52.4471 40.6138 46.375 48.0834 46.375H123.917ZM123.917 43.6667H48.0834C39.108 43.6667 31.8334 50.9413 31.8334 59.9167V114.083C31.8334 123.059 39.108 130.333 48.0834 130.333H123.917C132.892 130.333 140.167 123.059 140.167 114.083V59.9167C140.167 50.9413 132.892 43.6667 123.917 43.6667Z" fill="url(#paint2_linear_35_839)"/><path d="M113.083 76.1667C119.066 76.1667 123.917 71.3164 123.917 65.3333C123.917 59.3502 119.066 54.5 113.083 54.5C107.1 54.5 102.25 59.3502 102.25 65.3333C102.25 71.3164 107.1 76.1667 113.083 76.1667Z" fill="url(#paint3_linear_35_839)"/><path d="M42.6666 108.667C42.6666 111.635 45.0933 114.083 48.0833 114.083H123.917C126.907 114.083 129.333 111.678 129.333 108.667C129.333 101.278 120.19 92.4167 115.792 92.4167C111.393 92.4167 107.407 97.8333 96.8333 97.8333C83.6058 97.8333 75.1666 70.75 64.3333 70.75C53.5 70.75 42.6666 94.3775 42.6666 108.667Z" fill="url(#paint4_linear_35_839)"/><defs><filter id="filter0_f_35_839" x="0.5" y="0.5" width="170" height="169" filterUnits="userSpaceOnUse" color-interpolation-filters="sRGB"><feFlood flood-opacity="0" result="BackgroundImageFix"/><feBlend mode="normal" in="SourceGraphic" in2="BackgroundImageFix" result="shape"/><feGaussianBlur stdDeviation="1" result="effect1_foregroundBlur_35_839"/></filter><linearGradient id="paint0_linear_35_839" x1="4" y1="4" x2="165.997" y2="166.997" gradientUnits="userSpaceOnUse"><stop stop-color="white"/><stop offset="0.549032" stop-color="white" stop-opacity="0"/><stop offset="0.608579" stop-color="white" stop-opacity="0"/><stop offset="1" stop-color="white"/></linearGradient><linearGradient id="paint1_linear_35_839" x1="42.0097" y1="43.0096" x2="129.99" y2="130.99" gradientUnits="userSpaceOnUse"><stop stop-color="white" stop-opacity="0.6"/><stop offset="1" stop-color="white" stop-opacity="0.3"/></linearGradient><linearGradient id="paint2_linear_35_839" x1="42.0097" y1="43.0096" x2="129.99" y2="130.99" gradientUnits="userSpaceOnUse"><stop stop-color="white" stop-opacity="0.6"/><stop offset="0.4927" stop-color="white" stop-opacity="0"/><stop offset="0.9971" stop-color="white" stop-opacity="0.3"/></linearGradient><linearGradient id="paint3_linear_35_839" x1="105.423" y1="57.6731" x2="120.744" y2="72.9936" gradientUnits="userSpaceOnUse"><stop stop-color="white" stop-opacity="0.7"/><stop offset="0.5188" stop-color="white" stop-opacity="0.45"/><stop offset="0.9998" stop-color="white" stop-opacity="0.55"/></linearGradient><linearGradient id="paint4_linear_35_839" x1="55.0811" y1="75.9549" x2="109.688" y2="130.562" gradientUnits="userSpaceOnUse"><stop stop-color="white" stop-opacity="0.7"/><stop offset="0.5188" stop-color="white" stop-opacity="0.45"/><stop offset="0.9998" stop-color="white" stop-opacity="0.55"/></linearGradient></defs></svg> 