<!-- created by svgstack.com | Attribution is required. --><svg width="171" height="170" viewBox="0 0 171 170" fill="none" xmlns="http://www.w3.org/2000/svg"><g opacity="0.5" filter="url(#filter0_f_35_855)"><rect x="4" y="4" width="163" height="162" rx="40" stroke="url(#paint0_linear_35_855)" stroke-width="3"/></g><path d="M128.835 101.3C120.954 93.4188 108.176 93.4133 100.284 101.284L100.262 101.295L95.23 106.327L66.6625 77.7592L71.7 72.7325L71.7109 72.7108C79.5813 64.8188 79.5813 52.0463 71.6946 44.1596C63.8188 36.2838 51.0409 36.2783 43.1488 44.1488C43.1488 44.1596 43.1325 44.165 43.1325 44.165C38.0896 49.2079 36.3075 56.2442 37.7105 62.7333C38.913 71.6871 43.62 92.265 62.1775 110.823C80.735 129.38 101.308 134.087 110.267 135.29C116.756 136.693 123.792 134.91 128.835 129.868L128.846 129.846C136.722 121.959 136.716 109.181 128.835 101.3Z" fill="url(#paint1_linear_35_855)"/><path d="M57.4163 40.9583C62.0855 40.9583 66.4784 42.7783 69.7825 46.0825C76.5967 52.8967 76.6021 63.9846 69.7446 70.8529L69.658 70.945L64.7505 75.8525L62.833 77.77L64.7505 79.6875L93.318 108.255L95.2355 110.173L97.153 108.255L101.941 103.467L102.385 103.207L102.537 102.887C105.798 99.7996 110.05 98.0987 114.562 98.0987C119.231 98.0987 123.624 99.9187 126.928 103.223C133.743 110.037 133.743 121.125 126.939 127.939L126.685 128.194C123.429 131.325 119.155 133.047 114.6 133.047C113.338 133.047 112.076 132.912 110.63 132.608C102.7 131.547 82.2896 127.105 64.095 108.91C45.9005 90.7158 41.4642 70.3058 40.3646 62.1646C39.1188 56.4121 40.7817 50.5133 44.8225 46.3208L45.2613 46.0608L45.4075 45.7412C48.663 42.6537 52.9096 40.9583 57.4163 40.9583ZM57.4217 38.25C52.2542 38.25 47.0921 40.2163 43.1488 44.1488C43.1488 44.1596 43.1325 44.165 43.1325 44.165C38.0896 49.2079 36.3075 56.2442 37.7105 62.7333C38.913 71.6871 43.62 92.265 62.1775 110.823C80.735 129.38 101.308 134.087 110.267 135.29C111.691 135.593 113.143 135.75 114.595 135.75C119.751 135.75 124.897 133.8 128.83 129.867L128.84 129.846C136.711 121.959 136.711 109.181 128.824 101.295C124.881 97.3512 119.713 95.3796 114.54 95.3796C109.378 95.3796 104.216 97.3458 100.273 101.278L100.251 101.289L95.2192 106.321L66.6517 77.7537L71.7 72.7325L71.7109 72.7108C79.5813 64.8188 79.5813 52.0463 71.6946 44.1596C67.7567 40.2217 62.5892 38.25 57.4217 38.25Z" fill="url(#paint2_linear_35_855)"/><defs><filter id="filter0_f_35_855" x="0.5" y="0.5" width="170" height="169" filterUnits="userSpaceOnUse" color-interpolation-filters="sRGB"><feFlood flood-opacity="0" result="BackgroundImageFix"/><feBlend mode="normal" in="SourceGraphic" in2="BackgroundImageFix" result="shape"/><feGaussianBlur stdDeviation="1" result="effect1_foregroundBlur_35_855"/></filter><linearGradient id="paint0_linear_35_855" x1="4" y1="4" x2="165.997" y2="166.997" gradientUnits="userSpaceOnUse"><stop stop-color="white"/><stop offset="0.549032" stop-color="white" stop-opacity="0"/><stop offset="0.608579" stop-color="white" stop-opacity="0"/><stop offset="1" stop-color="white"/></linearGradient><linearGradient id="paint1_linear_35_855" x1="38.3724" y1="48.9273" x2="124.073" y2="134.628" gradientUnits="userSpaceOnUse"><stop stop-color="white" stop-opacity="0.6"/><stop offset="1" stop-color="white" stop-opacity="0.3"/></linearGradient><linearGradient id="paint2_linear_35_855" x1="38.3724" y1="48.9273" x2="124.073" y2="134.628" gradientUnits="userSpaceOnUse"><stop stop-color="white" stop-opacity="0.6"/><stop offset="0.4927" stop-color="white" stop-opacity="0"/><stop offset="0.9971" stop-color="white" stop-opacity="0.3"/></linearGradient></defs></svg> 