<!-- created by svgstack.com | Attribution is required. --><svg width="171" height="170" viewBox="0 0 171 170" fill="none" xmlns="http://www.w3.org/2000/svg"><g opacity="0.5" filter="url(#filter0_f_35_752)"><rect x="4" y="4" width="163" height="162" rx="40" stroke="url(#paint0_linear_35_752)" stroke-width="3"/></g><path d="M85 87C99.9577 87 112.083 74.8744 112.083 59.9167C112.083 44.959 99.9577 32.8333 85 32.8333C70.0422 32.8333 57.9166 44.959 57.9166 59.9167C57.9166 74.8744 70.0422 87 85 87Z" fill="url(#paint1_linear_35_752)"/><path d="M85 35.5417C98.4387 35.5417 109.375 46.4779 109.375 59.9167C109.375 73.3554 98.4387 84.2917 85 84.2917C71.5612 84.2917 60.625 73.3554 60.625 59.9167C60.625 46.4779 71.5612 35.5417 85 35.5417ZM85 32.8333C70.0445 32.8333 57.9166 44.9613 57.9166 59.9167C57.9166 74.8721 70.0445 87 85 87C99.9554 87 112.083 74.8721 112.083 59.9167C112.083 44.9613 99.9554 32.8333 85 32.8333Z" fill="url(#paint2_linear_35_752)"/><path d="M117.5 103.25H52.5C43.5246 103.25 36.25 110.525 36.25 119.5C36.25 128.475 43.5246 135.75 52.5 135.75H117.5C126.475 135.75 133.75 128.475 133.75 119.5C133.75 110.525 126.475 103.25 117.5 103.25Z" fill="url(#paint3_linear_35_752)"/><path d="M117.5 105.958C124.964 105.958 131.042 112.03 131.042 119.5C131.042 126.97 124.964 133.042 117.5 133.042H52.5C45.0304 133.042 38.9583 126.97 38.9583 119.5C38.9583 112.03 45.0304 105.958 52.5 105.958H117.5ZM117.5 103.25H52.5C43.5246 103.25 36.25 110.525 36.25 119.5C36.25 128.475 43.5246 135.75 52.5 135.75H117.5C126.475 135.75 133.75 128.475 133.75 119.5C133.75 110.525 126.475 103.25 117.5 103.25Z" fill="url(#paint4_linear_35_752)"/><defs><filter id="filter0_f_35_752" x="0.5" y="0.5" width="170" height="169" filterUnits="userSpaceOnUse" color-interpolation-filters="sRGB"><feFlood flood-opacity="0" result="BackgroundImageFix"/><feBlend mode="normal" in="SourceGraphic" in2="BackgroundImageFix" result="shape"/><feGaussianBlur stdDeviation="1" result="effect1_foregroundBlur_35_752"/></filter><linearGradient id="paint0_linear_35_752" x1="4" y1="4" x2="165.997" y2="166.997" gradientUnits="userSpaceOnUse"><stop stop-color="white"/><stop offset="0.549032" stop-color="white" stop-opacity="0"/><stop offset="0.608579" stop-color="white" stop-opacity="0"/><stop offset="1" stop-color="white"/></linearGradient><linearGradient id="paint1_linear_35_752" x1="65.8493" y1="40.766" x2="104.151" y2="79.0673" gradientUnits="userSpaceOnUse"><stop stop-color="white" stop-opacity="0.6"/><stop offset="1" stop-color="white" stop-opacity="0.3"/></linearGradient><linearGradient id="paint2_linear_35_752" x1="57.9166" y1="59.9167" x2="112.083" y2="59.9167" gradientUnits="userSpaceOnUse"><stop stop-color="white" stop-opacity="0.6"/><stop offset="0.4927" stop-color="white" stop-opacity="0"/><stop offset="0.9971" stop-color="white" stop-opacity="0.3"/></linearGradient><linearGradient id="paint3_linear_35_752" x1="57.2596" y1="91.7596" x2="112.74" y2="147.24" gradientUnits="userSpaceOnUse"><stop stop-color="white" stop-opacity="0.6"/><stop offset="1" stop-color="white" stop-opacity="0.3"/></linearGradient><linearGradient id="paint4_linear_35_752" x1="36.25" y1="119.5" x2="133.75" y2="119.5" gradientUnits="userSpaceOnUse"><stop stop-color="white" stop-opacity="0.6"/><stop offset="0.4927" stop-color="white" stop-opacity="0"/><stop offset="0.9971" stop-color="white" stop-opacity="0.3"/></linearGradient></defs></svg> 