<svg xmlns="http://www.w3.org/2000/svg" viewBox="0 0 360 470">
<defs>
 <linearGradient id="case" x1="0" y1="0" x2="1" y2="1"><stop stop-color="#f4f1e5"/><stop offset=".55" stop-color="#d1cdbc"/><stop offset="1" stop-color="#858276"/></linearGradient>
 <linearGradient id="screen" x1="0" y1="0" x2="0" y2="1"><stop stop-color="#222725"/><stop offset="1" stop-color="#050706"/></linearGradient>
 <filter id="shadow" x="-30%" y="-20%" width="160%" height="170%"><feDropShadow dx="0" dy="18" stdDeviation="14" flood-color="#000" flood-opacity=".46"/></filter>
</defs>
<path d="M180 8V72" stroke="#a88962" stroke-width="3"/>
<g filter="url(#shadow)">
 <path d="M73 68 Q180 43 287 68 L304 352 Q180 384 56 352Z" fill="url(#case)" stroke="#68665e" stroke-width="5"/>
 <path d="M94 92 Q180 73 266 92l12 190q-98 25-196 0Z" fill="url(#screen)" stroke="#555650" stroke-width="5"/>
 <path d="M108 109 Q180 96 252 109l7 142q-77 17-154 0Z" fill="#0c1110"/>
 <path d="M122 120h116v112H122Z" fill="#19201d"/>
 <path d="M130 129h99v95h-99Z" fill="#b9c2ad" opacity=".25"/>
 <path d="M143 197c13-24 24-24 37 0 12-17 22-17 37 0" fill="none" stroke="#b6c3ae" stroke-width="4" opacity=".65"/>
 <circle cx="180" cy="271" r="7" fill="#77766f"/>
 <path d="M87 313 Q180 333 273 313" fill="none" stroke="#77746c" stroke-width="4"/>
 <path d="M78 349 Q180 375 282 349" fill="none" stroke="#fff" stroke-opacity=".28" stroke-width="6"/>
 <path d="M83 86Q97 75 111 72" stroke="#fff" stroke-opacity=".55" stroke-width="6" fill="none" stroke-linecap="round"/>
 <path d="M61 351l-8 31q127 39 254 0l-8-31" fill="#b4b0a4" stroke="#68665e" stroke-width="4"/>
 <rect x="161" y="369" width="38" height="12" rx="5" fill="#68665e"/>
</g>
</svg>
